<?xml version="1.0" encoding="UTF-8"?>
<svg version="1.1" xmlns="http://www.w3.org/2000/svg" width="512" height="512">
<path d="M0 0 C1.76268219 -0.02398109 1.76268219 -0.02398109 3.56097412 -0.04844666 C5.46100189 -0.05649071 5.46100189 -0.05649071 7.39941406 -0.06469727 C8.70654358 -0.07372574 10.0136731 -0.08275421 11.3604126 -0.09205627 C14.12766992 -0.10853055 16.89480653 -0.11624304 19.66210938 -0.11914062 C23.19061521 -0.12451203 26.71796941 -0.16214435 30.24615097 -0.20788479 C33.63056475 -0.24497628 37.01480417 -0.24617811 40.39941406 -0.25219727 C42.28729645 -0.28149574 42.28729645 -0.28149574 44.21331787 -0.31138611 C51.41838592 -0.27451709 56.71248245 0.30626511 62.16503906 5.30639648 C65.6498516 9.77410487 67.26266009 13.2457995 67.34082031 18.87670898 C67.36466797 19.77389648 67.38851563 20.67108398 67.41308594 21.59545898 C67.455517 23.46242586 67.48705475 25.32967727 67.50683594 27.19702148 C67.70030975 33.51416631 68.4761972 39.02570304 72.16503906 44.30639648 C77.40789681 49.18137498 84.4036733 50.86656304 91.10253906 52.86889648 C101.44262219 56.11564227 111.03088855 60.3053766 120.7019043 65.18164062 C132.29619369 71.45121349 132.29619369 71.45121349 144.97363281 71.29467773 C149.81681325 69.11049832 153.33779118 65.2773605 156.90332031 61.43139648 C162.05048407 55.94108848 167.16065055 52.79816349 174.72753906 51.86889648 C184.08976961 53.0604531 188.92801679 57.32402655 195.37207031 63.84936523 C196.21928146 64.69179276 197.06649261 65.53422028 197.93937683 66.4021759 C199.72118794 68.18059566 201.49674498 69.96530096 203.26635742 71.75585938 C205.96882276 74.48509385 208.69691467 77.18663492 211.42871094 79.88647461 C213.16143609 81.62250399 214.89260948 83.36008386 216.62207031 85.09936523 C217.43456741 85.90174118 218.24706451 86.70411713 219.08418274 87.5308075 C224.64131858 93.20398656 227.58052118 97.71375598 228.60253906 105.74389648 C227.4364865 115.23889588 222.51182222 120.4481646 215.76196289 126.78930664 C210.67987352 131.57408246 208.51976378 135.09366047 208.16503906 142.30639648 C209.81506654 149.57457077 213.4605314 156.14096701 216.79003906 162.74389648 C221.79267004 172.85642288 225.78908184 183.05819294 229.22216797 193.80224609 C231.83651931 202.84089309 231.83651931 202.84089309 238.04760742 209.53173828 C243.88467222 212.48933079 249.27767955 212.83441905 255.72753906 212.80639648 C262.76482519 212.77595401 268.2214259 213.25234016 274.16503906 217.30639648 C278.59967965 221.97443921 280.4053088 225.72196182 280.47143555 232.14135742 C280.48742294 233.31647888 280.50341034 234.49160034 280.5198822 235.70233154 C280.5252449 236.96901672 280.5306076 238.2357019 280.53613281 239.54077148 C280.54516129 240.847901 280.55418976 242.15503052 280.56349182 243.50177002 C280.5799661 246.26902734 280.58767859 249.03616395 280.59057617 251.8034668 C280.59594758 255.33197263 280.6335799 258.85932683 280.67932034 262.38750839 C280.71641183 265.77192217 280.71761366 269.15616159 280.72363281 272.54077148 C280.74316513 273.79935974 280.76269745 275.057948 280.78282166 276.35467529 C280.74595263 283.55974334 280.16517044 288.85383987 275.16503906 294.30639648 C270.69733068 297.79120902 267.22563605 299.40401752 261.59472656 299.48217773 C260.69753906 299.50602539 259.80035156 299.52987305 258.87597656 299.55444336 C257.00900968 299.59687442 255.14175828 299.62841217 253.27441406 299.64819336 C246.95726923 299.84166717 241.44573251 300.61755462 236.16503906 304.30639648 C231.29006056 309.54925423 229.60487251 316.54503072 227.60253906 323.24389648 C224.35579327 333.58397961 220.16605895 343.17224597 215.28979492 352.84326172 C209.02022205 364.43755112 209.02022205 364.43755112 209.17675781 377.11499023 C211.36093723 381.95817068 215.19407505 385.4791486 219.04003906 389.04467773 C224.53034707 394.19184149 227.67327205 399.30200797 228.60253906 406.86889648 C227.41098245 416.23112703 223.147409 421.06937422 216.62207031 427.51342773 C215.77964279 428.36063889 214.93721527 429.20785004 214.06925964 430.08073425 C212.29083989 431.86254537 210.50613459 433.6381024 208.71557617 435.40771484 C205.9863417 438.11018018 203.28480063 440.83827209 200.58496094 443.57006836 C198.84893156 445.30279352 197.11135169 447.03396691 195.37207031 448.76342773 C194.56969437 449.57592484 193.76731842 450.38842194 192.94062805 451.22554016 C187.26744898 456.782676 182.75767957 459.7218786 174.72753906 460.74389648 C166.1185592 459.68665334 161.47756743 455.87066099 155.66503906 449.74389648 C149.1096846 442.8671837 149.1096846 442.8671837 140.16503906 440.30639648 C133.04640111 441.0176597 127.18919926 444.09870918 120.97753906 447.43139648 C110.84833819 452.6883454 100.55026003 456.71710946 89.76904297 460.41259766 C86.91169921 461.39335291 84.05681282 462.3791847 81.20800781 463.38452148 C80.3149292 463.69679688 79.42185059 464.00907227 78.50170898 464.33081055 C73.33485329 466.48803083 70.88503517 470.15692623 68.78955078 475.19042969 C67.33813209 480.10811765 67.72921541 485.3953351 67.72558594 490.48022461 C67.59751804 496.5789064 66.64438899 501.20906771 63.16503906 506.30639648 C58.49699633 510.74103708 54.74947373 512.54666622 48.33007812 512.61279297 C47.15495667 512.62878036 45.97983521 512.64476776 44.769104 512.66123962 C43.50241882 512.66660233 42.23573364 512.67196503 40.93066406 512.67749023 C39.62353455 512.68651871 38.31640503 512.69554718 36.96966553 512.70484924 C34.2024082 512.72132352 31.43527159 512.72903601 28.66796875 512.73193359 C25.13946292 512.737305 21.61210872 512.77493732 18.08392715 512.82067776 C14.69951337 512.85776925 11.31527395 512.85897108 7.93066406 512.86499023 C6.67207581 512.88452255 5.41348755 512.90405487 4.11676025 512.92417908 C-3.0883078 512.88731006 -8.38240432 512.30652786 -13.83496094 507.30639648 C-17.31977347 502.8386881 -18.93258197 499.36699347 -19.01074219 493.73608398 C-19.03458984 492.83889648 -19.0584375 491.94170898 -19.08300781 491.01733398 C-19.12543888 489.15036711 -19.15697662 487.2831157 -19.17675781 485.41577148 C-19.37023162 479.09862665 -20.14611907 473.58708993 -23.83496094 468.30639648 C-29.07781869 463.43141799 -36.07359517 461.74622993 -42.77246094 459.74389648 C-53.11254406 456.4971507 -62.70081042 452.30741637 -72.37182617 447.43115234 C-83.96611557 441.16157947 -83.96611557 441.16157947 -96.64355469 441.31811523 C-101.48673513 443.50229465 -105.00771305 447.33543247 -108.57324219 451.18139648 C-113.72040594 456.67170449 -118.83057242 459.81462947 -126.39746094 460.74389648 C-135.75969148 459.55233987 -140.59793867 455.28876642 -147.04199219 448.76342773 C-147.88920334 447.92100021 -148.73641449 447.07857269 -149.60929871 446.21061707 C-151.39110982 444.43219731 -153.16666685 442.64749201 -154.9362793 440.85693359 C-157.63874464 438.12769912 -160.36683654 435.42615805 -163.09863281 432.72631836 C-164.83135797 430.99028898 -166.56253136 429.25270911 -168.29199219 427.51342773 C-169.10448929 426.71105179 -169.91698639 425.90867584 -170.75410461 425.08198547 C-176.31124046 419.4088064 -179.25044305 414.89903699 -180.27246094 406.86889648 C-179.21483909 398.25683291 -175.4189989 393.6588813 -169.27246094 387.86889648 C-164.71600986 383.5427784 -161.44353163 380.06845157 -159.83886719 373.81811523 C-159.82682349 366.07401759 -163.42506229 359.83212327 -166.95996094 353.18139648 C-172.20368986 343.02937862 -176.24096514 332.70535483 -179.94116211 321.91040039 C-180.92191736 319.05305663 -181.90774915 316.19817025 -182.91308594 313.34936523 C-183.22536133 312.45628662 -183.53763672 311.56320801 -183.859375 310.64306641 C-186.01659528 305.47621071 -189.68549069 303.02639259 -194.71899414 300.9309082 C-199.6366821 299.47948951 -204.92389955 299.87057283 -210.00878906 299.86694336 C-216.10747085 299.73887546 -220.73763217 298.78574641 -225.83496094 295.30639648 C-230.27851473 290.62897144 -232.07814565 286.88850414 -232.12548828 280.45556641 C-232.13824799 279.27721725 -232.15100769 278.0988681 -232.16415405 276.8848114 C-232.1663797 275.61498917 -232.16860535 274.34516693 -232.17089844 273.03686523 C-232.17755524 271.72736404 -232.18421204 270.41786285 -232.19107056 269.06867981 C-232.20303423 266.29721787 -232.20675245 263.52588047 -232.20556641 260.75439453 C-232.20536352 257.21698179 -232.23263668 253.68037521 -232.26711082 250.14315319 C-232.29481057 246.75354612 -232.29353136 243.36408389 -232.29589844 239.97436523 C-232.31026947 238.71061569 -232.3246405 237.44686615 -232.33944702 236.14482117 C-232.30405175 229.31223099 -232.02541561 224.81257106 -227.83496094 219.30639648 C-220.87000283 212.69861571 -213.94068067 212.96766307 -204.84667969 212.91577148 C-198.54788601 212.75263726 -193.10123949 211.98280518 -187.83496094 208.30639648 C-182.95971348 203.06413688 -181.27469572 196.06743215 -179.27246094 189.36889648 C-176.02571515 179.02881336 -171.83598082 169.440547 -166.9597168 159.76953125 C-160.69014393 148.17524185 -160.69014393 148.17524185 -160.84667969 135.49780273 C-163.0308591 130.65462229 -166.86399693 127.13364437 -170.70996094 123.56811523 C-176.20026894 118.42095148 -179.34319393 113.310785 -180.27246094 105.74389648 C-179.08090432 96.38166594 -174.81733087 91.54341875 -168.29199219 85.09936523 C-167.44956467 84.25215408 -166.60713715 83.40494293 -165.73918152 82.53205872 C-163.96076177 80.7502476 -162.17605647 78.97469057 -160.38549805 77.20507812 C-157.65626358 74.50261278 -154.9547225 71.77452088 -152.25488281 69.04272461 C-150.51885343 67.30999945 -148.78127357 65.57882606 -147.04199219 63.84936523 C-146.23961624 63.03686813 -145.4372403 62.22437103 -144.61054993 61.38725281 C-138.93737086 55.83011696 -134.42760145 52.89091437 -126.39746094 51.86889648 C-117.78848108 52.92613963 -113.1474893 56.74213198 -107.33496094 62.86889648 C-100.77960648 69.74560927 -100.77960648 69.74560927 -91.83496094 72.30639648 C-84.71632298 71.59513327 -78.85912113 68.51408379 -72.64746094 65.18139648 C-62.51826007 59.92444757 -52.2201819 55.89568351 -41.43896484 52.20019531 C-38.58162108 51.21944006 -35.7267347 50.23360827 -32.87792969 49.22827148 C-31.98485107 48.91599609 -31.09177246 48.6037207 -30.17163086 48.28198242 C-25.00477517 46.12476214 -22.55495704 42.45586674 -20.45947266 37.42236328 C-19.00805396 32.50467532 -19.39913728 27.21745787 -19.39550781 22.13256836 C-19.26743991 16.03388657 -18.31431086 11.40372525 -14.83496094 6.30639648 C-10.16691821 1.87175589 -6.4193956 0.06612675 0 0 Z M-89.58496094 153.18139648 C-117.74641533 184.46507682 -130.50326893 224.5373937 -128.99902344 266.2175293 C-126.8855369 306.00894556 -107.49298585 344.10321128 -78.12011719 370.77124023 C-75.41315996 373.03300039 -72.65322295 375.18508305 -69.83496094 377.30639648 C-69.05862305 377.90315186 -69.05862305 377.90315186 -68.26660156 378.51196289 C-35.91477143 403.27831314 4.72558903 413.45660835 45.09838867 408.53491211 C84.1275899 402.88404886 121.35793729 381.93522111 145.16503906 350.30639648 C145.76179443 349.53005859 145.76179443 349.53005859 146.37060547 348.73803711 C171.13695572 316.38620697 181.31525093 275.74584652 176.39355469 235.37304688 C170.74269144 196.34384565 149.79386368 159.11349826 118.16503906 135.30639648 C117.64748047 134.90855957 117.12992188 134.51072266 116.59667969 134.10083008 C53.8297303 86.05074307 -36.24605164 95.69539176 -89.58496094 153.18139648 Z " fill="#fff" transform="translate(231.8349609375,-0.306396484375)"/>
<path d="M0 0 C23.62738832 21.07169855 40.23379448 49.31979924 42.58447266 81.41308594 C44.34490367 115.47884577 35.01563351 147.44349005 12.03857422 173.14208984 C-9.05663647 196.26107896 -38.30707592 210.87551491 -69.70800781 212.53417969 C-103.60080553 213.90054928 -134.78967235 203.17762052 -159.93505859 180.23339844 C-182.5255782 158.99206886 -196.49837443 129.35680382 -197.63427734 98.28417969 C-198.4337885 64.00777858 -187.11407948 33.1614391 -163.54077148 8.09082031 C-120.94367665 -35.78377144 -46.66904339 -40.57270396 0 0 Z M-90.66552734 22.78808594 C-93.84769502 27.56133745 -94.68665237 31.75495268 -94.27416992 37.42407227 C-94.20164001 38.59042206 -94.12911011 39.75677185 -94.05438232 40.95846558 C-93.93344208 42.83285812 -93.93344208 42.83285812 -93.81005859 44.74511719 C-91.78987665 88.38840918 -91.78987665 88.38840918 -98.17138672 96.84765625 C-104.37070964 103.17158413 -112.73514778 105.93937817 -121.06445312 108.32275391 C-127.31335982 110.35594765 -131.75267364 114.01190648 -135.41552734 119.41308594 C-136.773249 123.48625092 -136.93418583 127.15424234 -136.41552734 131.41308594 C-133.80540188 136.63333686 -130.02249254 140.93311465 -124.52099609 143.19042969 C-113.55491221 145.65220362 -99.96230805 134.53757153 -90.89086914 128.95141602 C-89.08947899 127.84224379 -87.28326054 126.74129988 -85.47607422 125.64160156 C-69.11817281 116.77289659 -69.11817281 116.77289659 -60.41552734 101.41308594 C-60.11116049 97.93725459 -60.11116049 97.93725459 -60.14086914 94.31958008 C-60.13320274 93.3131974 -60.13320274 93.3131974 -60.12538147 92.28648376 C-60.11159316 90.09031 -60.11243391 87.89445383 -60.11474609 85.69824219 C-60.11085346 84.15799343 -60.10651763 82.61774573 -60.10176086 81.07749939 C-60.09432195 77.85737622 -60.09457311 74.63736274 -60.09985352 71.41723633 C-60.10564741 67.30733307 -60.08870803 63.19788058 -60.06550884 59.0880518 C-60.05072005 55.9094331 -60.04990673 52.73092172 -60.05301857 49.5522747 C-60.05250802 48.03773544 -60.04732065 46.52318974 -60.03720665 45.00868416 C-59.68644669 32.36659843 -59.68644669 32.36659843 -65.16943359 21.35449219 C-65.76626953 20.89945313 -66.36310547 20.44441406 -66.97802734 19.97558594 C-67.57744141 19.5025 -68.17685547 19.02941406 -68.79443359 18.54199219 C-76.48921687 13.18345636 -84.7929429 16.58924681 -90.66552734 22.78808594 Z " fill="#fff" transform="translate(333.41552734375,163.5869140625)"/>
</svg>
